<?xml version="1.0" encoding="iso-8859-1"?>
<!-- Generator: Adobe Illustrator 16.2.1, SVG Export Plug-In . SVG Version: 6.00 Build 0)  -->
<!DOCTYPE svg PUBLIC "-//W3C//DTD SVG 1.1 Tiny//EN" "http://www.w3.org/Graphics/SVG/1.1/DTD/svg11-tiny.dtd">
<svg version="1.1" baseProfile="tiny" id="Layer_1" xmlns="http://www.w3.org/2000/svg" xmlns:xlink="http://www.w3.org/1999/xlink"
	 x="0px" y="0px" width="339.199px" height="172.728px" viewBox="0 0 339.199 172.728" xml:space="preserve">
<rect x="60.902" y="31.815" fill="#2B3E66" width="8.5" height="32"/>
<rect x="163.318" y="34.315" fill="#2B3E66" width="8.5" height="32"/>
<rect x="32.783" y="61.817" fill="#4A6188" width="155.701" height="27.254"/>
<g>
	<path fill="#60391C" d="M331.903,126.308c-3.65-3.395-15.168-3.85-19.309-3.742l-0.053-2c0.642-0.018,15.731-0.364,20.723,4.277
		L331.903,126.308z"/>
</g>
<g>
	<path fill="#60391C" d="M331.009,130.474c-3.65-3.395-15.168-3.85-19.309-3.742l-0.053-1.999
		c0.642-0.018,15.731-0.364,20.723,4.276L331.009,130.474z"/>
</g>
<path fill="#60391C" d="M310.485,115.399l-1.667,2.75c0,0,23-1.167,23,3.666s0,17,0,17l0,0l3.343,0.084l0.038-7.376l-1.703-1.44
	l-0.011-10.518C333.485,119.565,333.15,115.898,310.485,115.399z"/>
<path fill="none" stroke="#1C7C6B" stroke-width="3" stroke-miterlimit="10" d="M29.068,70.818h-7.583c0,0-6.333,0.917-6.333,7.124
	s0,38.415,0,38.415"/>
<path fill="none" stroke="#FFC91B" stroke-width="3" stroke-linecap="round" stroke-miterlimit="10" d="M80.485,111.818
	c0,0-6.333,0.917-6.333,7.124"/>
<path fill="none" stroke="#FFC91B" stroke-width="3" stroke-linecap="round" stroke-miterlimit="10" d="M84.068,111.818h-7.583
	c0,0-6.333,0.917-6.333,7.124"/>
<path fill="none" stroke="#2B3E66" stroke-width="3" stroke-miterlimit="10" d="M31.681,65.151H19.235c0,0-6.333,0.918-6.333,7.125
	c0,6.206,0,46.039,0,46.039"/>
<path fill="#2B3E66" d="M251.068,40.815l-9.25-6.5h-23l5.75,82.042l28.916-1.875l-2.416-26.167V40.815z M227.818,69.315l-1.5-21.75
	v-2.222c6.25-7.722,18.75-4.028,18.75-4.028l2.5,29.503L227.818,69.315z"/>
<path fill="#E85C25" d="M254.818,93.588h-32.25c0,0,0,8.478-13,8.478l1.5,10h45.75L254.818,93.588z"/>
<path fill="#5492BA" d="M252.818,77.315l55.25,2.5c0,0,10-0.25,11.75,6.25s0,10.75,0,10.75h2.75v8.25c0,0-4.5-0.5-6.25,4
	s-2.25,17.75-2.25,17.75v2h17.75v9h-18.75l-1.75-3.25h-67.5h-111c0,0-2.25-9-12.25-10s-25.75-1.25-29.25,0.75
	s-10.75,7.25-10.75,7.25v-2.75h-40.25c0,0-1.5,5-6.75,5s-26.583,0-26.583,0v-3.167l0,0H9.61v-11.333H6.985v-3.75h15.583h6.5v-39.25
	v-11h167l3.5,1.75l14,35.75v4.75h19.75h12.75c0,0,5,0.25,5-6.5s0-23.5,0-23.5L252.818,77.315z"/>
<g>
	<path fill="#DCDA68" d="M29.569,71.318h155.286c6.155,0,9.553,10.405,10.324,13.08L29.597,84.567L29.569,71.318z"/>
	<g>
		<path fill="#1C7C6B" d="M184.855,71.818c5.408,0,8.631,8.774,9.653,12.081L30.096,84.066L30.07,71.818H184.855 M184.855,70.818
			c-7.5,0-155.787,0-155.787,0l0.029,14.249l166.737-0.17C195.835,84.897,192.355,70.818,184.855,70.818L184.855,70.818z"/>
	</g>
</g>
<path fill="#FFFFFF" d="M132.818,134.565h120.666c0,0-1.999,6.25-8.666,6.25s-30.001-3.666-40.334-3s-23.832,3-29.416,3
	s-30.917,0-30.917,0S136.625,140.796,132.818,134.565z"/>
<g>
	<circle fill="#60391C" cx="103.983" cy="139.982" r="25.5"/>
	<circle fill="#DEB49F" cx="103.983" cy="139.982" r="20"/>
	<circle fill="none" stroke="#6D2E13" stroke-width="0.4183" stroke-miterlimit="10" cx="103.983" cy="139.982" r="10.5"/>
	<circle fill="none" stroke="#6D2E13" stroke-width="0.4183" stroke-miterlimit="10" cx="103.984" cy="139.982" r="16.333"/>
</g>
<g>
	<circle fill="#60391C" cx="290.483" cy="137.69" r="21.333"/>
	<circle fill="#DEB49F" cx="290.483" cy="137.69" r="16.731"/>
	<circle fill="none" stroke="#6D2E13" stroke-width="0.4183" stroke-miterlimit="10" cx="290.483" cy="137.69" r="8.784"/>
	<circle fill="none" stroke="#6D2E13" stroke-width="0.4183" stroke-miterlimit="10" cx="290.484" cy="137.69" r="13.665"/>
</g>
<path fill="none" stroke="#1C7C6B" stroke-width="3" stroke-miterlimit="10" d="M29.068,66.315h167c0,0,2.023-2.02,5.205,6.105
	c3.182,8.124,12.295,31.395,12.295,31.395v4.75h32.5c0,0,5-3.75,5-14.25s0-15.75,0-15.75l-1.25-37"/>
<path fill="#DCDA68" d="M9.61,120.315l24,0.094c0,0,6.75,6.25,0,11.25l-24-0.011"/>
<rect x="65.152" y="31.815" fill="#1C7C6B" width="9.333" height="34.277"/>
<rect x="183.818" y="36.149" fill="#1C7C6B" width="9.333" height="29.943"/>
<path fill="#1C7C6B" d="M12.819,31.815l228.667,7.667h11.999c0,0-0.999-16-16.999-18s-203.333-9-203.333-9
	S15.486,12.482,12.819,31.815z"/>
<path fill="#E85C25" d="M249.638,29.044c0,0,9.515,6.771,9.515,10.438s-1.834,6.667-8.084,5.667s-12.613-5.769-12.613-5.769
	S252.457,38.606,249.638,29.044z"/>
<path fill="#1C7C6B" d="M22.11,31.815c0,0,7.921,6.719,9.708,13.528c2.66,10.139-0.375,20.749-0.375,20.749h2.375
	c0,0,4.36-20.735-2.986-33.673L22.11,31.815z"/>
</svg>
